# xmcd CD database file
# Copyright (C) 1993-1998 Ti Kan
#
# Track frame offsets:
#  150
#  13780
#  29385
#  43414
#  61497
#  78165
#  92825
#  108320
#  123820
#  140665
#
# Disc length: 2149 seconds
#
# Revision: 1
# Processed by: cddbd v1.4b41PL1 Copyright (c) Steve Scherf et al.
# Submitted via: CDWizzard Release:4.35
#
DISCID=8308630a
DTITLE=Earl Thomas Conley - Perpetual Emotion
DYEAR=1900
DGENRE=
TTITLE0=I Ain't Crazy
TTITLE1=It Should've Been Over By Now
TTITLE2=The Closer You Are
TTITLE3=Scared Money Never Wins
TTITLE4=You Don't Have To Live With It
TTITLE5=Holding Her And Loving YYou
TTITLE6=Don't Make It Easy For Me
TTITLE7=Your Love's On The Line
TTITLE8=Once In A Blue Moon
TTITLE9=I Can't Win For Losing You
EXTD=
EXTT0=
EXTT1=
EXTT2=
EXTT3=
EXTT4=
EXTT5=
EXTT6=
EXTT7=
EXTT8=
EXTT9=
PLAYORDER=
